<svg width="30" height="30" viewBox="0 0 30 30" fill="none" xmlns="http://www.w3.org/2000/svg">
    <path d="M0.333008 15.0002C0.333008 6.90016 6.89967 0.333496 14.9997 0.333496C23.0997 0.333496 29.6663 6.90016 29.6663 15.0002C29.6663 23.1002 23.0997 29.6668 14.9997 29.6668C6.89967 29.6668 0.333008 23.1002 0.333008 15.0002ZM11.9997 8.91083C11.8983 8.85232 11.7834 8.82151 11.6663 8.82151C11.5493 8.82151 11.4344 8.85231 11.333 8.91083C11.2317 8.96934 11.1475 9.05349 11.089 9.15484C11.0305 9.25618 10.9997 9.37114 10.9997 9.48816V20.5122C10.9997 20.6292 11.0305 20.7441 11.089 20.8455C11.1475 20.9468 11.2317 21.031 11.333 21.0895C11.4344 21.148 11.5493 21.1788 11.6663 21.1788C11.7834 21.1788 11.8983 21.148 11.9997 21.0895L21.5477 15.5775C21.649 15.519 21.7332 15.4348 21.7917 15.3335C21.8502 15.2321 21.881 15.1172 21.881 15.0002C21.881 14.8831 21.8502 14.7682 21.7917 14.6668C21.7332 14.5655 21.649 14.4813 21.5477 14.4228L11.9997 8.91083Z" fill="black"/>
</svg>